<svg width="21" height="20" viewBox="0 0 21 20" fill="none" xmlns="http://www.w3.org/2000/svg">
<g clip-path="url(#clip0_1_4833)">
<path d="M10.1085 1.80078C12.7803 1.80078 13.0967 1.8125 14.1475 1.85937C15.1241 1.90234 15.6514 2.06641 16.003 2.20313C16.4678 2.38281 16.8038 2.60156 17.1514 2.94922C17.503 3.30078 17.7178 3.63281 17.8975 4.09766C18.0342 4.44922 18.1983 4.98047 18.2413 5.95312C18.2881 7.00781 18.2999 7.32422 18.2999 9.99219C18.2999 12.6641 18.2881 12.9805 18.2413 14.0313C18.1983 15.0078 18.0342 15.5352 17.8975 15.8867C17.7178 16.3516 17.4991 16.6875 17.1514 17.0352C16.7999 17.3867 16.4678 17.6016 16.003 17.7813C15.6514 17.918 15.1202 18.082 14.1475 18.125C13.0928 18.1719 12.7764 18.1836 10.1085 18.1836C7.43659 18.1836 7.12018 18.1719 6.0694 18.125C5.09284 18.082 4.56549 17.918 4.21393 17.7813C3.74908 17.6016 3.41315 17.3828 3.06549 17.0352C2.71393 16.6836 2.49908 16.3516 2.3194 15.8867C2.18268 15.5352 2.01862 15.0039 1.97565 14.0313C1.92877 12.9766 1.91705 12.6602 1.91705 9.99219C1.91705 7.32031 1.92877 7.00391 1.97565 5.95312C2.01862 4.97656 2.18268 4.44922 2.3194 4.09766C2.49908 3.63281 2.71783 3.29688 3.06549 2.94922C3.41705 2.59766 3.74908 2.38281 4.21393 2.20313C4.56549 2.06641 5.09674 1.90234 6.0694 1.85937C7.12018 1.8125 7.43659 1.80078 10.1085 1.80078ZM10.1085 0C7.39362 0 7.05377 0.0117187 5.98737 0.0585938C4.92487 0.105469 4.1944 0.277344 3.56158 0.523438C2.90143 0.78125 2.34283 1.12109 1.78815 1.67969C1.22955 2.23438 0.88971 2.79297 0.631897 3.44922C0.385803 4.08594 0.213928 4.8125 0.167053 5.875C0.120178 6.94531 0.108459 7.28516 0.108459 10C0.108459 12.7148 0.120178 13.0547 0.167053 14.1211C0.213928 15.1836 0.385803 15.9141 0.631897 16.5469C0.88971 17.207 1.22955 17.7656 1.78815 18.3203C2.34283 18.875 2.90143 19.2188 3.55768 19.4727C4.1944 19.7188 4.92096 19.8906 5.98346 19.9375C7.04987 19.9844 7.38971 19.9961 10.1046 19.9961C12.8194 19.9961 13.1592 19.9844 14.2256 19.9375C15.2881 19.8906 16.0186 19.7188 16.6514 19.4727C17.3077 19.2188 17.8663 18.875 18.421 18.3203C18.9756 17.7656 19.3194 17.207 19.5733 16.5508C19.8194 15.9141 19.9913 15.1875 20.0381 14.125C20.085 13.0586 20.0967 12.7188 20.0967 10.0039C20.0967 7.28906 20.085 6.94922 20.0381 5.88281C19.9913 4.82031 19.8194 4.08984 19.5733 3.45703C19.3272 2.79297 18.9874 2.23438 18.4288 1.67969C17.8741 1.125 17.3155 0.78125 16.6592 0.527344C16.0225 0.28125 15.296 0.109375 14.2335 0.0625C13.1631 0.0117188 12.8233 0 10.1085 0Z" fill="#EDEDED"/>
<path d="M10.1046 4.86328C7.26862 4.86328 4.96783 7.16406 4.96783 10C4.96783 12.8359 7.26862 15.1367 10.1046 15.1367C12.9405 15.1367 15.2413 12.8359 15.2413 10C15.2413 7.16406 12.9405 4.86328 10.1046 4.86328ZM10.1046 13.332C8.26471 13.332 6.77252 11.8398 6.77252 10C6.77252 8.16016 8.26471 6.66797 10.1046 6.66797C11.9444 6.66797 13.4366 8.16016 13.4366 10C13.4366 11.8398 11.9444 13.332 10.1046 13.332Z" fill="#EDEDED"/>
<path d="M16.6475 4.66016C16.6475 5.32422 16.1085 5.85938 15.4483 5.85938C14.7842 5.85938 14.2491 5.32031 14.2491 4.66016C14.2491 3.99609 14.7881 3.46094 15.4483 3.46094C16.1085 3.46094 16.6475 4 16.6475 4.66016Z" fill="#EDEDED"/>
</g>
<defs>
<clipPath id="clip0_1_4833">
<rect width="20" height="20" fill="white" transform="translate(0.108459)"/>
</clipPath>
</defs>
</svg>
