<svg width="21" height="20" viewBox="0 0 21 20" fill="none" xmlns="http://www.w3.org/2000/svg">
<g clip-path="url(#clip0_1_4838)">
<path d="M18.628 0H1.58502C0.768616 0 0.108459 0.644531 0.108459 1.44141V18.5547C0.108459 19.3516 0.768616 20 1.58502 20H18.628C19.4444 20 20.1085 19.3516 20.1085 18.5586V1.44141C20.1085 0.644531 19.4444 0 18.628 0ZM6.04205 17.043H3.0733V7.49609H6.04205V17.043ZM4.55768 6.19531C3.60455 6.19531 2.83502 5.42578 2.83502 4.47656C2.83502 3.52734 3.60455 2.75781 4.55768 2.75781C5.5069 2.75781 6.27643 3.52734 6.27643 4.47656C6.27643 5.42188 5.5069 6.19531 4.55768 6.19531ZM17.1514 17.043H14.1866V12.4023C14.1866 11.2969 14.1671 9.87109 12.6436 9.87109C11.1006 9.87109 10.8663 11.0781 10.8663 12.3242V17.043H7.90533V7.49609H10.7491V8.80078H10.7881C11.1827 8.05078 12.1514 7.25781 13.5928 7.25781C16.5967 7.25781 17.1514 9.23438 17.1514 11.8047V17.043Z" fill="#EDEDED"/>
</g>
<defs>
<clipPath id="clip0_1_4838">
<rect width="20" height="20" fill="white" transform="translate(0.108459)"/>
</clipPath>
</defs>
</svg>
